# xmcd
#
# Track frame offsets:
# 150
# 46235
# 57122
# 82984
#
# Disc length: 1512 seconds
#
# Revision: 0
# Processed by: cddbd v1.5.2PL0 Copyright (c) Steve Scherf et al.
# Submitted via: Audion 3.0.2 (http://www.panic.com/audion/)
#
DISCID=2505e604
DTITLE=Sylvian-Fripp - Sylvian-Fripp
DYEAR=1900
DGENRE=
TTITLE0=Sylvian-Fripp 01
TTITLE1=Sylvian-Fripp 02
TTITLE2=Sylvian-Fripp 03
TTITLE3=Sylvian-Fripp 04
EXTD=
EXTT0=
EXTT1=
EXTT2=
EXTT3=
PLAYORDER=
